HIERARCHY
ROOT Hips
{
	OFFSET 0.00000 0.00000 0.00000
	CHANNELS 6 Xposition Yposition Zposition Zrotation Yrotation Xrotation 
	JOINT LHipJoint
	{
		OFFSET 0 0 0
		CHANNELS 3 Zrotation Yrotation Xrotation
		JOINT LeftUpLeg
		{
			OFFSET 1.17584 -1.63585 1.00361
			CHANNELS 3 Zrotation Yrotation Xrotation
			JOINT LeftLeg
			{
				OFFSET 2.23889 -6.15131 0.00000
				CHANNELS 3 Zrotation Yrotation Xrotation
				JOINT LeftFoot
				{
					OFFSET 2.65161 -7.28525 0.00000
					CHANNELS 3 Zrotation Yrotation Xrotation
					JOINT LeftToeBase
					{
						OFFSET 0.24898 -0.68407 1.57235
						CHANNELS 3 Zrotation Yrotation Xrotation
						End Site
						{
							OFFSET 0.00000 -0.00000 0.85838
						}
					}
				}
			}
		}
	}
	JOINT RHipJoint
	{
		OFFSET 0 0 0
		CHANNELS 3 Zrotation Yrotation Xrotation
		JOINT RightUpLeg
		{
			OFFSET -1.15592 -1.63585 1.00361
			CHANNELS 3 Zrotation Yrotation Xrotation
			JOINT RightLeg
			{
				OFFSET -2.34071 -6.43104 0.00000
				CHANNELS 3 Zrotation Yrotation Xrotation
				JOINT RightFoot
				{
					OFFSET -2.59113 -7.11908 0.00000
					CHANNELS 3 Zrotation Yrotation Xrotation
					JOINT RightToeBase
					{
						OFFSET -0.17867 -0.49089 1.70981
						CHANNELS 3 Zrotation Yrotation Xrotation
						End Site
						{
							OFFSET -0.00000 -0.00000 0.89861
						}
					}
				}
			}
		}
	}
	JOINT LowerBack
	{
		OFFSET 0 0 0
		CHANNELS 3 Zrotation Yrotation Xrotation
		JOINT Spine
		{
			OFFSET -0.02255 1.90764 -0.16605
			CHANNELS 3 Zrotation Yrotation Xrotation
			JOINT Spine1
			{
				OFFSET -0.00365 1.92150 -0.04898
				CHANNELS 3 Zrotation Yrotation Xrotation
				JOINT Neck
				{
					OFFSET 0 0 0
					CHANNELS 3 Zrotation Yrotation Xrotation
					JOINT Neck1
					{
						OFFSET 0.00372 1.59170 0.08694
						CHANNELS 3 Zrotation Yrotation Xrotation
						JOINT Head
						{
							OFFSET 0.12558 1.58643 -0.08078
							CHANNELS 3 Zrotation Yrotation Xrotation
							End Site
							{
								OFFSET 0.04211 1.60835 -0.03803
							}
						}
					}
				}
				JOINT LeftShoulder
				{
					OFFSET 0 0 0
					CHANNELS 3 Zrotation Yrotation Xrotation
					JOINT LeftArm
					{
						OFFSET 3.69324 0.96316 0.19077
						CHANNELS 3 Zrotation Yrotation Xrotation
						JOINT LeftForeArm
						{
							OFFSET 4.87796 -0.00000 -0.00000
							CHANNELS 3 Zrotation Yrotation Xrotation
							JOINT LeftHand
							{
								OFFSET 3.23169 -0.00000 0.00000
								CHANNELS 3 Zrotation Yrotation Xrotation
								JOINT LeftFingerBase
								{
									OFFSET 0 0 0
									CHANNELS 3 Zrotation Yrotation Xrotation
									JOINT LeftHandIndex1
									{
										OFFSET 0.73132 -0.00000 0.00000
										CHANNELS 3 Zrotation Yrotation Xrotation
										End Site
										{
											OFFSET 0.58961 -0.00000 0.00000
										}
									}
								}
								JOINT LThumb
								{
									OFFSET 0 0 0
									CHANNELS 3 Zrotation Yrotation Xrotation
									End Site
									{
										OFFSET 0.59861 -0.00000 0.59861
									}
								}
							}
						}
					}
				}
				JOINT RightShoulder
				{
					OFFSET 0 0 0
					CHANNELS 3 Zrotation Yrotation Xrotation
					JOINT RightArm
					{
						OFFSET -3.66103 0.75145 0.08281
						CHANNELS 3 Zrotation Yrotation Xrotation
						JOINT RightForeArm
						{
							OFFSET -4.91430 -0.00000 0.00000
							CHANNELS 3 Zrotation Yrotation Xrotation
							JOINT RightHand
							{
								OFFSET -3.29093 -0.00000 0.00000
								CHANNELS 3 Zrotation Yrotation Xrotation
								JOINT RightFingerBase
								{
									OFFSET 0 0 0
									CHANNELS 3 Zrotation Yrotation Xrotation
									JOINT RightHandIndex1
									{
										OFFSET -0.54512 -0.00000 0.00000
										CHANNELS 3 Zrotation Yrotation Xrotation
										End Site
										{
											OFFSET -0.43949 -0.00000 0.00000
										}
									}
								}
								JOINT RThumb
								{
									OFFSET 0 0 0
									CHANNELS 3 Zrotation Yrotation Xrotation
									End Site
									{
										OFFSET -0.44620 -0.00000 0.44620
									}
								}
							}
						}
					}
				}
			}
		}
	}
}
MOTION
Frames: 9
Frame Time: 0.0238095
0.00 0.00 0.00 -57.7733 148.6200 -151.5270 0.0000 0.0000 0.0000 4.5271 29.8520 12.5065 24.0882 19.5945 102.0313 -0.0155 -3.3859 -1.4977 3.8883 -12.0103 -35.7683 0.0000 0.0000 0.0000 -2.1632 31.1211 -14.2260 -32.2324 -15.9457 128.2786 -0.1541 3.4475 -7.0220 -3.0419 -10.7625 31.4830 -1.1301 -10.2719 -11.8188 11.0580 -13.1317 -4.9959 10.2355 -6.2998 4.1519 -6.7651 -7.1405 -17.4678 18.1991 -9.7892 5.7771 5.9003 -3.5577 5.9649 0.0000 -0.0000 0.0000 -6.5636 -50.7000 1.5304 61.1871 -56.6181 -35.3306 -0.0000 0.0000 -5.1771 54.7415 -45.0883 -45.0503 -7.1250 0.0000 -0.0000 6.7889 -29.7857 -9.3043 0.0000 -0.0000 0.0000 76.9417 24.6345 -27.9455 -148.4081 42.2194 -107.5343 0.0000 -0.0000 -18.3670 -146.1188 27.7810 -162.6209 7.1250 -0.0000 -0.0000 -177.9586 2.4718 178.0472
0.00 0.00 0.00 -58.5762 149.6790 -151.9030 0.0000 0.0000 0.0000 7.2850 31.4566 10.4516 24.8422 19.4283 104.2884 -0.1775 -7.7180 4.9902 2.7595 -10.2951 -29.9379 0.0000 0.0000 0.0000 -1.8679 31.3672 -14.0776 -31.8664 -16.2166 126.9575 -0.1723 3.4030 -7.4031 -3.2237 -11.0486 32.4441 -0.7475 -9.8085 -11.2004 10.8920 -12.5129 -5.2067 10.0914 -5.9801 3.3456 -8.0044 -7.0953 -16.1535 22.2472 -9.5194 3.5155 7.5059 -3.3856 5.3764 -0.0000 0.0000 0.0000 -4.4673 -40.4463 -13.0411 83.9688 -59.8621 -54.7792 -0.0000 0.0000 -9.9492 59.9951 -45.8836 -51.1885 -7.1250 0.0000 -0.0000 8.6042 -33.6453 -12.0031 -0.0000 0.0000 0.0000 77.9827 23.3490 -28.5344 -147.0728 43.2740 -106.6279 0.0000 -0.0000 -16.8673 -140.4806 23.7565 -161.6176 7.1250 -0.0000 -0.0000 -173.8291 0.2425 173.8192
0.00 0.00 0.00 -55.7580 147.0110 -149.7160 0.0000 0.0000 0.0000 16.5145 34.6688 12.7142 27.8482 18.4541 113.5309 -0.5661 -15.4327 -2.8940 2.2411 -9.3512 -26.9001 0.0000 0.0000 0.0000 -0.7533 27.9068 -12.6652 -31.6167 -16.3941 126.0680 -0.1924 2.9774 -7.7927 -2.1451 -9.1619 26.3031 -1.2811 -9.8094 -11.8637 10.4278 -12.4070 -5.8727 9.8500 -5.8997 2.9785 -7.9843 -8.3110 -14.7454 22.1789 -10.2831 -1.0901 7.3825 -4.0783 3.8793 -0.0000 -0.0000 0.0000 -3.0532 -35.1272 -22.0937 104.3218 -59.2106 -72.3701 -0.0000 0.0000 -12.9897 63.0880 -46.8561 -55.1745 -7.1250 0.0000 -0.0000 9.3291 -36.4409 -13.1315 -0.0000 -0.0000 0.0000 76.5026 21.4097 -34.9947 -147.8203 42.6900 -107.1375 0.0000 -0.0000 -15.6773 -135.5964 20.3679 -161.1770 7.1250 -0.0000 -0.0000 -170.2008 -1.1832 169.8521
0.00 0.00 0.00 -55.1275 145.8310 -148.4240 0.0000 0.0000 0.0000 17.1450 34.9061 14.4668 27.2489 18.6904 111.6495 0.1615 -15.1225 -12.3153 3.7777 -11.8585 -35.2333 0.0000 0.0000 0.0000 1.5783 27.5688 -12.2503 -31.6368 -16.3800 126.1395 -0.2142 2.8041 -8.2232 -1.5471 -7.8511 22.2626 -0.5815 -9.2637 -12.9655 9.7308 -11.7132 -6.5373 8.7514 -5.5294 2.4400 -9.6444 -9.1060 -14.8980 25.8769 -11.3746 -0.4551 8.7831 -4.3639 4.7033 0.0000 0.0000 0.0000 -2.1561 -31.6335 -24.4041 122.6651 -55.5569 -87.8668 -0.0000 0.0000 -10.8352 61.6057 -47.0076 -53.5340 -7.1250 0.0000 -0.0000 8.6338 -35.6026 -12.1154 0.0000 0.0000 0.0000 76.5259 18.5654 -39.1492 -148.5401 42.1123 -107.6229 0.0000 -0.0000 -14.8549 -136.3504 20.3374 -161.6576 7.1250 -0.0000 -0.0000 -170.6427 -1.6326 170.2503
0.00 0.00 0.00 -54.5769 147.0080 -149.0780 0.0000 0.0000 0.0000 15.0192 35.1327 15.3796 26.9884 18.7863 110.8385 0.3316 -14.1257 -13.4406 4.0706 -12.2537 -36.6356 0.0000 0.0000 0.0000 2.2396 28.2137 -9.9918 -31.7482 -16.3014 126.5354 -0.2375 1.4074 -8.8186 -2.0095 -8.8859 25.4390 -1.4920 -9.2322 -12.5146 9.5550 -11.6268 -6.3103 9.1194 -5.5087 2.5678 -8.9704 -8.5877 -16.4609 22.7837 -10.7501 0.3879 7.6626 -4.0900 4.7821 -0.0000 -0.0000 0.0000 1.5719 -28.3685 -28.3407 139.5184 -48.3527 -101.2017 -0.0000 0.0000 -9.1762 62.8531 -45.0198 -54.0616 -7.1250 0.0000 -0.0000 10.2949 -34.7843 -14.4495 -0.0000 -0.0000 0.0000 75.2679 18.2472 -37.7120 -150.1019 40.8059 -108.6570 0.0000 -0.0000 -14.9018 -136.9620 20.6315 -161.7880 7.1250 -0.0000 -0.0000 -171.0710 -1.6155 170.7105
0.00 0.00 0.00 -55.0581 147.3660 -151.2230 0.0000 0.0000 0.0000 7.2587 32.6818 15.0030 25.1378 19.3550 105.1787 -0.0511 -10.1955 -6.2761 3.5841 -11.5854 -34.2807 0.0000 0.0000 0.0000 -3.4537 23.1999 -10.2215 -31.0811 -16.7552 124.1909 -0.1710 4.0841 -7.4582 -4.1643 -12.3759 37.0750 0.2295 -9.5363 -14.2304 9.3519 -12.1859 -6.6733 7.6368 -5.7668 2.7930 -8.7332 -7.6217 -17.6599 21.2409 -10.2634 5.2365 7.1931 -3.6322 6.2317 -0.0000 0.0000 0.0000 31.8371 -47.6800 -37.7072 67.6351 -58.0230 -40.7600 -0.0000 0.0000 -9.7898 68.6705 -48.1312 -62.3293 -7.1250 0.0000 -0.0000 10.7652 -41.1957 -15.2989 -0.0000 0.0000 0.0000 75.7019 20.5490 -36.3001 -151.0066 40.0148 -109.2436 0.0000 -0.0000 -13.7217 -136.3925 20.2750 -161.7330 7.1250 -0.0000 -0.0000 -170.6543 -1.7285 170.2474
0.00 0.00 0.00 -54.9110 147.6570 -152.7450 0.0000 0.0000 0.0000 4.1957 30.3130 14.7515 23.3464 19.7294 99.8268 -0.1617 -7.8902 6.5331 2.5124 -9.8605 -28.5262 0.0000 0.0000 0.0000 -4.7782 21.6422 -8.4563 -30.5902 -17.0643 122.5032 -0.0535 4.8032 -4.9764 -4.5469 -12.8546 38.8265 0.3665 -10.1837 -14.1518 9.6795 -13.0349 -6.6139 7.7354 -6.1781 2.9813 -9.2568 -7.2594 -18.1867 20.2720 -9.7932 6.6274 7.0307 -3.4167 6.6271 0.0000 0.0000 0.0000 39.7275 -51.2002 -39.9962 36.2039 -45.6529 -15.6682 -0.0000 0.0000 -1.0242 67.7196 -47.3366 -60.8738 -7.1250 0.0000 -0.0000 10.9164 -39.9629 -15.4976 0.0000 0.0000 0.0000 75.3456 23.1327 -36.2828 -150.4174 40.5329 -108.8626 0.0000 -0.0000 -13.8110 -133.5548 20.1347 -160.0973 7.1250 -0.0000 -0.0000 -168.9411 -0.2634 168.6778
0.00 0.00 0.00 -54.7029 148.0670 -153.8380 0.0000 0.0000 0.0000 2.3919 28.2143 14.3321 21.3950 19.9533 94.0818 1.1321 -3.0880 21.4299 1.7084 -8.2302 -23.4156 0.0000 0.0000 0.0000 -5.5292 20.8268 -7.5222 -30.2160 -17.2866 121.2360 0.0553 4.6857 -0.5763 -4.6770 -13.0106 39.4081 0.0417 -10.8127 -14.1959 9.7354 -13.7787 -6.9916 7.8284 -6.5391 2.7959 -9.7060 -6.9580 -16.6037 20.1389 -9.4463 7.0799 7.1354 -3.3483 6.4508 -0.0000 0.0000 0.0000 40.7296 -53.3939 -37.3878 22.5362 -33.5778 -6.8801 -0.0000 -0.0000 5.1001 63.3520 -47.0795 -55.5789 -7.1250 0.0000 -0.0000 9.3030 -36.7920 -13.1048 -0.0000 0.0000 0.0000 75.9776 24.4880 -36.1513 -149.8093 41.0563 -108.4653 0.0000 -0.0000 -13.6755 -130.7012 21.4545 -156.9639 7.1250 -0.0000 -0.0000 -167.5900 3.1647 168.0048
0.00 0.00 0.00 -55.8986 150.6650 -157.5310 0.0000 0.0000 0.0000 4.3725 28.3729 16.0257 16.3636 19.6800 79.3132 3.6395 13.3092 34.5866 1.0931 -6.6442 -18.6656 0.0000 0.0000 0.0000 -3.4571 22.5426 -7.2798 -29.5364 -17.6624 118.9730 -0.6705 -0.7062 15.2460 -3.2612 -11.1064 32.6395 -2.4789 -12.1668 -11.7685 10.4183 -15.3125 -6.9452 9.9352 -7.3299 2.6247 -10.9111 -7.2692 -14.1195 21.5047 -10.0462 7.5924 7.7894 -3.6854 6.4314 -0.0000 -0.0000 0.0000 26.2292 -48.0037 -22.2867 13.0742 -21.3958 -2.4803 -0.0000 -0.0000 14.8882 56.6911 -43.1538 -46.1473 -7.1250 0.0000 -0.0000 8.5827 -29.1586 -11.7588 -0.0000 -0.0000 0.0000 79.2143 28.1851 -33.7317 -148.1364 42.4381 -107.3513 0.0000 -0.0000 -11.4120 -122.4712 26.1777 -145.2686 7.1250 -0.0000 -0.0000 -164.1833 15.2486 168.4445
